<svg xmlns="http://www.w3.org/2000/svg" width="120" height="24" fill="none" viewBox="0 0 120 24"><g clip-path="url(#clip0)"><path fill="#fff" d="M8.475 20.468a8.37 8.37 0 100-16.741 8.37 8.37 0 100 16.74z"/><path fill="#03A9F4" d="M13.412 12.922V5.315c-5.081-3.6-9.79 0-9.79 0v10.843h6.35"/><path fill="#012E4C" d="M9.972 16.158s.331-.548-.384-3.592l3.825.356"/><path stroke="#fff" stroke-miterlimit="10" d="M5.17 10.733h6.707M5.17 7.456h6.707H5.17zm0 1.64h6.707H5.17zM8.524 20.468a8.37 8.37 0 100-16.741 8.37 8.37 0 100 16.74z"/><path fill="#fff" d="M22.722 5.028h3.894c3.18 0 5.062 1.037 5.062 3.978 0 2.792-1.904 4.153-5.062 4.153h-2.904v6.119h-.994V5.028h.004zm3.633 7.288c2.92 0 4.305-.973 4.305-3.31 0-2.4-1.408-3.135-4.305-3.135h-2.643v6.445h2.643zm13.333.458c.043-1.578-.407-3.286-2.44-3.286-1.407 0-2.617.692-3.31 1.21l-.432-.711c.735-.52 2.162-1.34 3.85-1.34 2.467 0 3.29 1.773 3.29 4.001v6.63h-.803l-.107-1.34h-.044c-1.06.843-2.314 1.599-3.676 1.599-1.645 0-3.03-.886-3.03-2.856-.004-2.288 2.096-3.39 6.702-3.907zm-3.525 5.95c1.19 0 2.25-.584 3.525-1.687v-3.526c-4.262.493-5.71 1.488-5.71 3.133 0 1.492.994 2.076 2.185 2.076v.004zm9.156 1.468v3.786h-.951V8.899h.822l.087 1.298h.065c1.016-.802 2.249-1.557 3.524-1.557 2.77 0 4.154 2.076 4.154 5.3 0 3.524-2.14 5.601-4.586 5.601-.973 0-2.032-.476-3.116-1.275v1.926h.001zm3.072-1.494c2.098 0 3.613-1.945 3.613-4.756 0-2.554-.908-4.456-3.288-4.456-1.038 0-2.14.604-3.397 1.708v6.163c1.191.974 2.277 1.34 3.072 1.34v.002zm7.385-13.152a.867.867 0 11.865.843.828.828 0 01-.865-.843zm.368 3.353h.951v10.379h-.951V8.899zm8.612-.259c2.467 0 3.98 1.751 3.98 4.802.008.26-.007.52-.042.778h-7.486c.044 2.618 1.58 4.5 3.916 4.5a4.6 4.6 0 002.79-.93l.39.735c-.821.499-1.752 1.016-3.267 1.016-2.661 0-4.802-2.032-4.802-5.429 0-3.396 2.206-5.472 4.521-5.472zm3.072 4.845c0-2.661-1.189-4.024-3.049-4.024-1.773 0-3.353 1.536-3.57 4.024h6.62zM71.555 8.9h.822l.087 1.925h.065c.692-1.277 1.708-2.184 2.942-2.184.358-.017.715.057 1.038.215l-.217.87a2.252 2.252 0 00-.951-.174c-.93 0-2.033.711-2.835 2.661v7.066h-.95V8.899zm6.861-5.169h.951v11.464h.044l5.126-6.296h1.105l-3.375 4.11 3.937 6.27h-1.06l-3.44-5.559-2.337 2.725v2.834h-.95V3.73zM88.458 8.9h.823l.085 1.924h.065c.692-1.277 1.708-2.184 2.942-2.184.358-.017.715.057 1.038.215l-.216.87a2.252 2.252 0 00-.951-.174c-.93 0-2.033.711-2.834 2.661v7.066h-.952V8.899zm12.486 3.874c.043-1.578-.407-3.286-2.44-3.286-1.407 0-2.618.692-3.31 1.21l-.433-.711c.736-.52 2.163-1.34 3.851-1.34 2.467 0 3.289 1.773 3.289 4.001v6.63h-.802l-.108-1.34h-.043c-1.06.843-2.314 1.599-3.676 1.599-1.646 0-3.03-.886-3.03-2.856-.004-2.288 2.096-3.39 6.702-3.907zm-3.525 5.95c1.19 0 2.25-.584 3.525-1.687v-3.526c-4.262.497-5.711 1.492-5.711 3.137 0 1.488.996 2.072 2.186 2.072v.004zm8.208-9.825h.822l.086 1.602h.065c.93-1.06 2.119-1.86 3.266-1.86 1.667 0 2.51.844 2.876 2.119 1.191-1.298 2.337-2.119 3.527-2.119 2.076 0 3.116 1.297 3.116 3.979v6.658h-.974V12.75c0-2.207-.735-3.245-2.314-3.245-.974 0-1.97.648-3.116 1.946v7.827h-.952V12.75c0-2.207-.734-3.245-2.337-3.245-.93 0-1.969.649-3.116 1.946v7.827h-.949V8.899z"/></g><defs><clipPath id="clip0"><path fill="#fff" d="M0 0h120v24H0z"/></clipPath></defs></svg>
