<svg xmlns="http://www.w3.org/2000/svg" width="80" height="24" fill="none" viewBox="0 0 80 24"><g clip-path="url(#clip0)"><path fill="#fff" d="M78.191 19.173c-1.165 0-1.73-.832-1.73-2.496V4.893c0-1.697.532-2.496 1.73-2.496 1.199 0 1.698.832 1.698 2.496v11.784c0 1.664-.532 2.496-1.698 2.496zM67.94 24c-3.162 0-5.06-1.165-5.06-2.497a1.465 1.465 0 011.398-1.497h.1c.866 0 1.898.931 3.695.931 1.798 0 2.696-1.031 2.696-2.896 0-.133-.033-.266-.033-.432a3.595 3.595 0 01-3.129 1.63c-2.73 0-4.993-2.496-4.993-5.99 0-3.496 2.43-6.092 5.36-6.092a3.362 3.362 0 012.762 1.231 1.863 1.863 0 011.531-1.098c1.165 0 1.731.799 1.731 2.496v6.89c0 2.065-.133 3.662-.799 4.76C72.166 23.102 70.368 24 67.94 24zm.5-13.614c-1.266 0-2.264 1.098-2.264 2.829 0 1.73.965 2.896 2.263 2.896 1.299 0 2.264-1.132 2.264-2.896s-.999-2.83-2.264-2.83zM54.856 24c-3.162 0-5.06-1.165-5.06-2.497a1.465 1.465 0 011.399-1.497h.1c.865 0 1.897.931 3.694.931 1.798 0 2.697-1.031 2.697-2.896 0-.133-.034-.266-.034-.432a3.595 3.595 0 01-3.129 1.63c-2.696 0-4.993-2.496-4.993-5.99 0-3.496 2.43-6.092 5.36-6.092a3.362 3.362 0 012.762 1.231 1.864 1.864 0 011.532-1.098c1.164 0 1.73.799 1.73 2.496v6.89c0 2.065-.133 3.662-.798 4.76-1 1.665-2.797 2.564-5.26 2.564zm.5-13.614c-1.265 0-2.264 1.098-2.264 2.829 0 1.73.965 2.896 2.263 2.896 1.299 0 2.264-1.132 2.264-2.896s-.999-2.83-2.264-2.83zm-12.683 8.987c-3.395 0-5.825-2.563-5.825-6.158s2.463-6.158 5.825-6.158S48.5 9.62 48.5 13.215s-2.396 6.158-5.792 6.158h-.033zm0-9.087c-1.265 0-2.263 1.098-2.263 2.896 0 1.797.965 2.929 2.263 2.929s2.264-1.132 2.264-2.93c0-1.797-.999-2.895-2.264-2.895zm-8.022.3h-.3v6.09c0 1.665-.532 2.497-1.697 2.497s-1.698-.832-1.698-2.496v-6.092h-.133c-1.232 0-1.93-.599-1.93-1.498 0-.898.698-1.464 2.063-1.53V6.057c0-1.664.533-2.496 1.73-2.496 1.2 0 1.699.832 1.699 2.496v1.498h.3c1.364 0 2.163.6 2.163 1.531 0 .932-.732 1.498-2.197 1.498zM11.85 23.7c6.545 0 11.85-5.305 11.85-11.85C23.7 5.306 18.395 0 11.85 0 5.306 0 0 5.306 0 11.85 0 18.395 5.306 23.7 11.85 23.7z"/><path fill="#E24F54" d="M12.65 4.693h-1.665v8.322h1.664V4.693zm-.833 13.315a5.825 5.825 0 01-1.498-11.45v1.73a4.16 4.16 0 102.996 0v-1.73a5.825 5.825 0 01-1.498 11.45z"/></g><defs><clipPath id="clip0"><path fill="#fff" d="M0 0h79.889v24H0z"/></clipPath></defs></svg>
