<svg xmlns="http://www.w3.org/2000/svg" width="134" height="40" fill="none" viewBox="0 0 134 40"><g clip-path="url(#clip0)"><path fill="#fff" d="M130.319 31.956c-1.942 0-2.885-1.387-2.885-4.161V8.155c0-2.83.888-4.16 2.885-4.16 1.997 0 2.829 1.386 2.829 4.16v19.64c0 2.774-.887 4.16-2.829 4.16zM113.232 40c-5.271 0-8.433-1.942-8.433-4.161a2.44 2.44 0 012.33-2.496h.166c1.443 0 3.163 1.553 6.159 1.553 2.995 0 4.493-1.72 4.493-4.827 0-.222-.055-.444-.055-.72a5.994 5.994 0 01-5.215 2.717c-4.549 0-8.322-4.16-8.322-9.986 0-5.825 4.05-10.152 8.932-10.152a5.6 5.6 0 014.605 2.052 3.107 3.107 0 012.552-1.83c1.942 0 2.885 1.331 2.885 4.16v11.485c0 3.44-.222 6.102-1.332 7.933-1.72 2.774-4.715 4.272-8.765 4.272zm.832-22.69c-2.108 0-3.773 1.83-3.773 4.715s1.609 4.827 3.773 4.827c2.163 0 3.772-1.887 3.772-4.827s-1.664-4.716-3.772-4.716zM91.429 40c-5.27 0-8.433-1.942-8.433-4.161a2.441 2.441 0 012.33-2.496h.166c1.443 0 3.163 1.553 6.158 1.553 2.996 0 4.494-1.72 4.494-4.827 0-.222-.055-.444-.055-.72a5.992 5.992 0 01-5.215 2.717c-4.494 0-8.322-4.16-8.322-9.986 0-5.825 4.05-10.152 8.932-10.152a5.604 5.604 0 014.605 2.052 3.106 3.106 0 012.552-1.83c1.942 0 2.885 1.331 2.885 4.16v11.485c0 3.44-.222 6.102-1.332 7.933C98.53 38.502 95.534 40 91.429 40zm.832-22.69c-2.108 0-3.773 1.83-3.773 4.715s1.61 4.827 3.773 4.827c2.163 0 3.772-1.887 3.772-4.827s-1.664-4.716-3.772-4.716zM71.123 32.287c-5.658 0-9.708-4.271-9.708-10.263S65.52 11.76 71.123 11.76c5.604 0 9.71 4.272 9.71 10.264 0 5.992-3.995 10.263-9.654 10.263h-.056zm0-15.145c-2.108 0-3.772 1.83-3.772 4.826 0 2.996 1.609 4.883 3.772 4.883 2.164 0 3.773-1.887 3.773-4.883 0-2.995-1.664-4.826-3.773-4.826zm-13.37.5h-.5v10.152c0 2.774-.887 4.16-2.829 4.16-1.941 0-2.829-1.386-2.829-4.16V17.642h-.222c-2.053 0-3.218-.998-3.218-2.496s1.165-2.442 3.44-2.552v-2.497c0-2.774.888-4.16 2.885-4.16 1.997 0 2.83 1.386 2.83 4.16v2.497h.499c2.274 0 3.606.998 3.606 2.552 0 1.553-1.22 2.496-3.662 2.496z"/><path fill="#E24F54" d="M19.75 39.5c10.908 0 19.75-8.842 19.75-19.75C39.5 8.843 30.659 0 19.75 0 8.843 0 0 8.843 0 19.75 0 30.658 8.843 39.5 19.75 39.5z"/><path fill="#fff" d="M21.082 7.822h-2.774v13.87h2.774V7.822zm-1.387 22.192a9.709 9.709 0 01-2.497-19.085v2.885a6.935 6.935 0 104.993 0V10.93a9.71 9.71 0 01-2.496 19.085z"/></g><defs><clipPath id="clip0"><path fill="#fff" d="M0 0h133.148v40H0z"/></clipPath></defs></svg>
