<svg xmlns="http://www.w3.org/2000/svg" width="198" height="40" fill="none" viewBox="0 0 198 40"><g clip-path="url(#clip0)"><path fill="#03A9F4" d="M13.955 27.82c7.613 0 13.785-6.171 13.785-13.784S21.568.25 13.955.25.171 6.423.171 14.036 6.342 27.82 13.955 27.82z"/><path fill="#fff" d="M22.085 15.395V2.867c-8.367-5.93-16.12 0-16.12 0v17.856H16.42"/><path fill="#012E4C" d="M16.42 20.723s.546-.902-.632-5.916l6.299.588"/><path stroke="#03A9F4" stroke-miterlimit="10" d="M8.513 11.79h11.043M8.514 6.393h11.043H8.514zm0 2.7h11.043H8.514zM14.036 27.82c7.613 0 13.784-6.171 13.784-13.784S21.65.25 14.036.25.25 6.423.25 14.036 6.423 27.82 14.036 27.82z"/><path fill="#03A9F4" d="M37.414 2.393h6.413c5.235 0 8.336 1.709 8.336 6.552 0 4.597-3.136 6.84-8.336 6.84h-4.78V25.86h-1.64V2.393h.007zm5.983 12.002c4.81 0 7.09-1.601 7.09-5.45 0-3.953-2.319-5.163-7.09-5.163h-4.35v10.613h4.35zm21.955.755c.072-2.599-.67-5.412-4.017-5.412-2.317 0-4.31 1.14-5.45 1.993l-.713-1.171c1.212-.855 3.561-2.208 6.34-2.208 4.062 0 5.416 2.92 5.416 6.59V25.86h-1.32l-.178-2.207h-.072c-1.743 1.39-3.81 2.634-6.053 2.634-2.709 0-4.988-1.459-4.988-4.702-.007-3.769 3.45-5.585 11.035-6.435zm-5.804 9.798c1.958 0 3.704-.962 5.804-2.777v-5.808c-7.017.812-9.404 2.45-9.404 5.16 0 2.457 1.639 3.419 3.6 3.419v.006zm15.077 2.419V33.6h-1.567V8.77h1.354l.142 2.136h.108c1.673-1.32 3.703-2.564 5.803-2.564 4.56 0 6.84 3.42 6.84 8.728 0 5.803-3.525 9.224-7.551 9.224-1.603 0-3.347-.783-5.131-2.1v3.173h.002zm5.059-2.46c3.454 0 5.949-3.205 5.949-7.834 0-4.206-1.496-7.338-5.415-7.338-1.71 0-3.525.995-5.593 2.813v10.15c1.961 1.603 3.748 2.207 5.059 2.207v.002zm12.16-21.66a1.426 1.426 0 111.424 1.389 1.364 1.364 0 01-1.425-1.39zm.605 5.522h1.567V25.86h-1.567V8.77zm14.181-.427c4.062 0 6.555 2.884 6.555 7.908a7.85 7.85 0 01-.07 1.282h-12.327c.072 4.31 2.602 7.41 6.448 7.41a7.575 7.575 0 004.594-1.532l.644 1.21c-1.354.822-2.887 1.674-5.38 1.674-4.383 0-7.907-3.347-7.907-8.94s3.631-9.012 7.443-9.012zm5.059 7.98c0-4.383-1.958-6.627-5.02-6.627-2.92 0-5.523 2.528-5.879 6.627h10.901-.002zm6.137-7.553h1.354l.142 3.17h.107c1.14-2.104 2.813-3.597 4.845-3.597a3.517 3.517 0 011.709.353l-.357 1.435a3.705 3.705 0 00-1.566-.288c-1.531 0-3.347 1.171-4.668 4.383V25.86h-1.566V8.77zM129.124.256h1.566v18.879h.072l8.441-10.368h1.819l-5.557 6.768 6.483 10.325h-1.747l-5.662-9.154-3.849 4.487v4.667h-1.566V.256zm16.536 8.513h1.354l.14 3.17h.107c1.14-2.104 2.813-3.597 4.845-3.597a3.517 3.517 0 011.709.353l-.355 1.435a3.708 3.708 0 00-1.566-.288c-1.532 0-3.347 1.171-4.668 4.383V25.86h-1.566V8.77zm20.559 6.381c.072-2.599-.67-5.412-4.017-5.412-2.318 0-4.311 1.14-5.45 1.993l-.713-1.171c1.211-.855 3.561-2.208 6.341-2.208 4.061 0 5.415 2.92 5.415 6.59V25.86h-1.32l-.178-2.207h-.072c-1.743 1.39-3.81 2.634-6.053 2.634-2.709 0-4.988-1.459-4.988-4.702-.007-3.769 3.45-5.585 11.035-6.435zm-5.804 9.798c1.958 0 3.703-.962 5.804-2.777v-5.808c-7.017.819-9.404 2.457-9.404 5.166 0 2.45 1.64 3.413 3.6 3.413v.006zM173.93 8.77h1.354l.142 2.637h.107c1.532-1.745 3.49-3.062 5.377-3.062 2.745 0 4.134 1.389 4.736 3.49 1.962-2.138 3.849-3.49 5.807-3.49 3.419 0 5.131 2.135 5.131 6.552V25.86h-1.603V15.11c0-3.635-1.21-5.344-3.81-5.344-1.604 0-3.244 1.068-5.131 3.205v12.89h-1.567V15.11c0-3.635-1.21-5.344-3.849-5.344-1.532 0-3.242 1.069-5.131 3.205v12.89h-1.563V8.768z"/><path fill="#BFBFBF" d="M88.038 30.563h1.883c1.398 0 2.3.53 2.3 1.697 0 .731-.413 1.316-1.24 1.526v.042c1.028.15 1.674.721 1.674 1.687 0 1.339-1.017 2.035-2.597 2.035h-2.025v-6.987h.005zm1.687 3.074c1.442 0 2.008-.467 2.008-1.389 0-.922-.67-1.283-1.951-1.283H88.52v2.677h1.198l.007-.005zm.212 3.515c1.39 0 2.238-.502 2.238-1.634 0-1.004-.817-1.484-2.238-1.484h-1.41v3.116h1.41v.002zm4.064-4.691h.466v3.201c0 1.081.335 1.59 1.157 1.59.604 0 1.05-.318 1.643-1.04v-3.751h.467v5.089h-.391l-.06-.848h-.016c-.502.584-1.029.975-1.729.975-1.049 0-1.537-.636-1.537-1.95v-3.266zm7.584-.127a2.09 2.09 0 011.496.626l-.276.334a1.737 1.737 0 00-1.208-.54c-1.04 0-1.841.922-1.841 2.27 0 1.346.731 2.247 1.841 2.247a2.051 2.051 0 001.357-.583l.242.318a2.402 2.402 0 01-1.621.678c-1.316 0-2.311-.976-2.311-2.66 0-1.686 1.079-2.69 2.321-2.69zm2.865-2.407h.467v3.329c.53-.53 1.061-.922 1.76-.922 1.05 0 1.538.636 1.538 1.95v3.266h-.467v-3.201c0-1.081-.334-1.59-1.171-1.59-.604 0-1.039.318-1.665.954v3.839h-.467v-7.625h.005zm5.601 0h.467v3.329c.53-.53 1.061-.922 1.76-.922 1.05 0 1.538.636 1.538 1.95v3.266h-.467v-3.201c0-1.081-.334-1.59-1.171-1.59-.604 0-1.039.318-1.665.954v3.839h-.467v-7.625h.005zm8.602 4.432c.022-.773-.201-1.612-1.198-1.612a2.81 2.81 0 00-1.622.593l-.213-.35a3.396 3.396 0 011.888-.658c1.208 0 1.612.869 1.612 1.961v3.255h-.394l-.051-.657h-.022c-.519.413-1.135.783-1.803.783-.806 0-1.484-.434-1.484-1.4-.008-1.12 1.029-1.66 3.287-1.915zm-1.727 2.917c.582 0 1.103-.287 1.727-.827V34.72c-2.089.243-2.8.732-2.8 1.538.007.73.489 1.018 1.071 1.018h.002zm4.019-7.349h.467v7.009c0 .222.096.335.223.335a.843.843 0 00.191-.02l.085.381a.985.985 0 01-.335.052c-.413 0-.625-.254-.625-.805v-6.952h-.006zm2.631 2.937h-.795v-.361l.805-.042.064-1.474h.41v1.474h1.474v.403h-1.474v3.319c0 .646.159 1.08.858 1.08.221-.01.437-.065.636-.158l.127.381a2.84 2.84 0 01-.826.191c-.986 0-1.272-.626-1.272-1.536v-3.277h-.007zm3.024-.403h.472v3.201c0 1.081.335 1.59 1.157 1.59.604 0 1.049-.318 1.643-1.04v-3.751h.467v5.089h-.393l-.052-.848h-.027c-.502.584-1.029.975-1.729.975-1.049 0-1.538-.636-1.538-1.95v-3.266zm5.687 0h.403l.042.785h.03c.519-.52 1.049-.912 1.749-.912 1.049 0 1.538.636 1.538 1.95v3.266h-.467v-3.201c0-1.081-.335-1.59-1.172-1.59-.604 0-1.039.318-1.665.954v3.839h-.467V32.46h.009zm5.973 4.898v-.042a.906.906 0 01-.446-.816c0-.455.335-.773.551-.934v-.042a1.903 1.903 0 01-.636-1.399 1.76 1.76 0 01.512-1.278 1.756 1.756 0 011.279-.513c.229 0 .456.043.669.128h1.729v.391h-1.188a1.705 1.705 0 01.562 1.284 1.73 1.73 0 01-1.083 1.664 1.737 1.737 0 01-.688.128 1.757 1.757 0 01-.848-.212.909.909 0 00-.413.73c0 .372.21.67.973.67h1.093c1.147 0 1.674.362 1.674 1.172 0 .88-.944 1.718-2.407 1.718-1.283 0-2.088-.552-2.088-1.409.001-.455.288-.9.755-1.24zm1.389 2.26c1.146 0 1.877-.647 1.877-1.284 0-.562-.413-.775-1.171-.775h-1.1a3.137 3.137 0 01-.636-.085c-.467.318-.669.711-.669 1.07 0 .638.617 1.073 1.699 1.073zm1.188-5.493c0-.858-.594-1.409-1.316-1.409-.721 0-1.325.54-1.325 1.41 0 .868.614 1.43 1.325 1.43.712 0 1.314-.572 1.314-1.43h.002zm4.371-1.665h.403l.042.785h.032c.519-.52 1.049-.912 1.749-.912 1.049 0 1.538.636 1.538 1.95v3.266h-.467v-3.201c0-1.081-.335-1.59-1.172-1.59-.604 0-1.039.318-1.665.954v3.839h-.467V32.46h.007zm7.435-.127c1.208 0 1.952.858 1.952 2.353.003.127-.004.255-.021.381h-3.67c.022 1.284.775 2.206 1.92 2.206.493.002.974-.158 1.367-.455l.193.36c-.471.325-1.03.5-1.602.502-1.305 0-2.353-1.005-2.353-2.661 0-1.657 1.076-2.686 2.214-2.686zm1.506 2.374c0-1.305-.582-1.973-1.494-1.973-.869 0-1.643.754-1.751 1.973h3.245zm1.753-2.247h.466v3.201c0 1.081.335 1.59 1.157 1.59.604 0 1.049-.318 1.643-1.04v-3.751h.467v5.089h-.393l-.052-.848h-.02c-.502.584-1.029.975-1.729.975-1.049 0-1.538-.636-1.538-1.95v-3.266h-.001zm8.124 4.898v-.042a.91.91 0 01-.445-.816c0-.455.335-.773.551-.934v-.042a1.903 1.903 0 01-.636-1.399 1.742 1.742 0 01.512-1.278 1.746 1.746 0 011.279-.513c.229 0 .456.043.669.128h1.729v.391h-1.189a1.694 1.694 0 01.563 1.284 1.746 1.746 0 01-1.083 1.664 1.737 1.737 0 01-.688.128 1.757 1.757 0 01-.848-.212.921.921 0 00-.414.73c0 .372.211.67.974.67h1.093c1.146 0 1.674.362 1.674 1.172 0 .88-.944 1.718-2.407 1.718-1.283 0-2.088-.552-2.088-1.409.001-.455.282-.9.754-1.24zm1.389 2.26c1.147 0 1.878-.647 1.878-1.284 0-.562-.413-.775-1.171-.775h-1.093a3.118 3.118 0 01-.636-.085c-.467.318-.67.711-.67 1.07-.001.638.611 1.073 1.692 1.073zm1.189-5.493c0-.858-.595-1.409-1.316-1.409-.721 0-1.325.54-1.325 1.41 0 .868.614 1.43 1.325 1.43s1.316-.572 1.316-1.43zm3.936-1.792c1.208 0 1.951.858 1.951 2.353.004.127-.003.255-.02.381h-3.67c.022 1.284.775 2.206 1.919 2.206.494.002.974-.158 1.368-.455l.192.36c-.471.325-1.029.5-1.601.502-1.306 0-2.353-1.005-2.353-2.661 0-1.657 1.086-2.686 2.214-2.686zm1.506 2.374c0-1.305-.583-1.973-1.495-1.973-.868 0-1.643.754-1.75 1.973h3.245zm3.66-2.374c.614 0 1.027.232 1.536.626l-.02-.934v-2.099h.467v7.623h-.412l-.042-.658h-.032c-.413.414-.973.784-1.653.784-1.283 0-2.11-.944-2.11-2.661.008-1.642 1.056-2.681 2.266-2.681zm-.086 4.93c.563 0 1.061-.296 1.602-.837v-3.022c-.541-.477-.986-.658-1.484-.658-1.018 0-1.791.986-1.791 2.27-.002 1.346.592 2.247 1.673 2.247zm7.022-2.905c.022-.773-.2-1.612-1.198-1.612a2.807 2.807 0 00-1.621.593l-.213-.35a3.396 3.396 0 011.888-.658c1.208 0 1.611.869 1.611 1.961v3.255h-.393l-.052-.657h-.022c-.518.413-1.134.783-1.802.783-.807 0-1.484-.434-1.484-1.4 0-1.12 1.029-1.66 3.286-1.915zm-1.727 2.917c.583 0 1.103-.287 1.727-.827V34.72c-2.088.243-2.799.732-2.799 1.538.001.73.488 1.018 1.072 1.018zm5.919-4.942a2.092 2.092 0 011.497.626l-.277.334a1.736 1.736 0 00-1.209-.54c-1.04 0-1.841.922-1.841 2.27 0 1.346.731 2.247 1.841 2.247a2.046 2.046 0 001.357-.583l.244.318a2.404 2.404 0 01-1.622.678c-1.315 0-2.311-.976-2.311-2.66 0-1.686 1.081-2.69 2.321-2.69zm2.865-2.407h.464v3.329c.531-.53 1.061-.922 1.761-.922 1.049 0 1.538.636 1.538 1.95v3.266h-.467v-3.201c0-1.081-.335-1.59-1.172-1.59-.604 0-1.039.318-1.665.954v3.839h-.467v-7.625h.008zm5.719 2.937h-.795v-.361l.805-.042.063-1.474h.404v1.474h1.474v.403h-1.474v3.319c0 .646.159 1.08.858 1.08a1.7 1.7 0 00.636-.158l.127.381a2.84 2.84 0 01-.826.191c-.986 0-1.272-.626-1.272-1.536v-3.277z"/></g><defs><clipPath id="clip0"><path fill="#fff" d="M0 0h197.518v40H0z"/></clipPath></defs></svg>
