<svg xmlns="http://www.w3.org/2000/svg" width="134" height="40" fill="none" viewBox="0 0 134 40">
  <g clip-path="url(#clip0)">
    <path fill="#fff" d="M130.319 31.955c-1.942 0-2.885-1.387-2.885-4.16V8.154c0-2.83.888-4.16 2.885-4.16 1.997 0 2.829 1.386 2.829 4.16v19.64c0 2.773-.887 4.16-2.829 4.16zM113.232 40c-5.271 0-8.433-1.942-8.433-4.161a2.44 2.44 0 012.33-2.497h.166c1.443 0 3.163 1.554 6.159 1.554 2.995 0 4.493-1.72 4.493-4.827 0-.222-.055-.444-.055-.721a5.994 5.994 0 01-5.215 2.718c-4.549 0-8.322-4.16-8.322-9.986 0-5.825 4.05-10.152 8.932-10.152a5.599 5.599 0 014.605 2.052 3.107 3.107 0 012.552-1.83c1.942 0 2.885 1.331 2.885 4.16v11.484c0 3.44-.222 6.103-1.332 7.934-1.72 2.774-4.715 4.272-8.765 4.272zm.832-22.691c-2.108 0-3.773 1.83-3.773 4.716 0 2.885 1.609 4.826 3.773 4.826 2.163 0 3.772-1.886 3.772-4.826 0-2.94-1.664-4.716-3.772-4.716zm-22.635 22.69c-5.27 0-8.433-1.941-8.433-4.16a2.44 2.44 0 012.33-2.497h.166c1.443 0 3.163 1.554 6.158 1.554 2.996 0 4.494-1.72 4.494-4.827 0-.222-.055-.444-.055-.721a5.993 5.993 0 01-5.215 2.718c-4.494 0-8.322-4.16-8.322-9.986 0-5.825 4.05-10.152 8.932-10.152a5.603 5.603 0 014.605 2.052 3.106 3.106 0 012.552-1.83c1.942 0 2.885 1.331 2.885 4.16v11.484c0 3.44-.222 6.103-1.332 7.934C98.53 38.502 95.534 40 91.429 40zm.832-22.69c-2.108 0-3.773 1.83-3.773 4.716 0 2.885 1.61 4.826 3.773 4.826 2.163 0 3.772-1.886 3.772-4.826 0-2.94-1.664-4.716-3.772-4.716zm-21.138 14.98c-5.658 0-9.708-4.273-9.708-10.264 0-5.992 4.105-10.264 9.708-10.264 5.604 0 9.71 4.272 9.71 10.264 0 5.991-3.995 10.263-9.654 10.263h-.056zm0-15.147c-2.108 0-3.772 1.831-3.772 4.827s1.609 4.882 3.772 4.882c2.164 0 3.773-1.886 3.773-4.882 0-2.996-1.664-4.827-3.773-4.827zm-13.37.5h-.5v10.152c0 2.774-.887 4.161-2.829 4.161-1.941 0-2.829-1.387-2.829-4.16V17.641h-.222c-2.053 0-3.218-.999-3.218-2.497 0-1.498 1.165-2.44 3.44-2.552v-2.496c0-2.774.888-4.161 2.885-4.161 1.997 0 2.83 1.387 2.83 4.16v2.497h.499c2.274 0 3.606.999 3.606 2.552 0 1.554-1.22 2.497-3.662 2.497z"/>
    <path fill="#E24F54" d="M19.75 39.5c10.908 0 19.75-8.842 19.75-19.75C39.5 8.843 30.659 0 19.75 0 8.843 0 0 8.843 0 19.75 0 30.658 8.843 39.5 19.75 39.5z"/>
    <path fill="#fff" d="M21.082 7.822h-2.774v13.87h2.774V7.822zm-1.387 22.192a9.709 9.709 0 01-2.497-19.085v2.885a6.935 6.935 0 104.993 0v-2.885a9.708 9.708 0 01-2.496 19.085z"/>
  </g>
  <defs>
    <clipPath id="clip0">
      <path fill="#fff" d="M0 0h133.148v40H0z"/>
    </clipPath>
  </defs>
</svg>
